ffmpeg started on 2025-06-07 at 17:28:39
Report written to "D:\Convert\FFMetrics\reports\psnr_report-6.txt"
Log level: 32
Command line:
ffmpeg -hide_banner -nostdin -i "G:\\\xc0\xed\xe8\xec\xe5\\\xce\xed\xe3\xee\xe8\xed\xe3\xe8\\!_36_\xce\xf1\xe5\xed\xfc_2024\\DreamCast\\\xdd\xe9, \xd2\xee\xec\xe1\xee!\\\xd2\xc2-1\\[DC] Ooi! Tonbo - 12_Telegram_HEVC.mkv" -i "G:\\\xc0\xed\xe8\xec\xe5\\\xce\xed\xe3\xee\xe8\xed\xe3\xe8\\!_36_\xce\xf1\xe5\xed\xfc_2024\\DreamCast\\\xdd\xe9, \xd2\xee\xec\xe1\xee!\\\xd2\xc2-1\\[DC] Ooi! Tonbo - 12_Telegram.mp4" -lavfi "[0:v]settb=AVTB,setpts=PTS-STARTPTS,format=pix_fmts=yuv420p10,fps=24000/1001,scale=1920:1080:flags=bicubic[main];[1:v]settb=AVTB,setpts=PTS-STARTPTS,format=pix_fmts=yuv420p,fps=24000/1001,scale=1920:1080:flags=bicubic[ref];[main][ref]psnr=eof_action=endall:stats_file='D\\:/Convert/FFMetrics/logs/psnr_logfile-6.txt'" -f null -
Input #0, matroska,webm, from 'G:\Аниме\Онгоинги\!_36_Осень_2024\DreamCast\Эй, Томбо!\ТВ-1\[DC] Ooi! Tonbo - 12_Telegram_HEVC.mkv':
  Metadata:
    COMPATIBLE_BRANDS: isomiso2avc1mp41
    MAJOR_BRAND     : isom
    MINOR_VERSION   : 512
    ENCODER         : Lavf61.7.100
  Duration: 00:24:20.87, start: -0.021000, bitrate: 1121 kb/s
  Stream #0:0: Video: hevc (Main 10), yuv420p10le(tv, bt709, progressive), 1920x1080 [SAR 1:1 DAR 16:9], 23.98 fps, 23.98 tbr, 1k tbn (default)
      Metadata:
        HANDLER_NAME    : VideoHandler
        VENDOR_ID       : [0][0][0][0]
        ENCODER         : Lavc61.19.100 libx265
        BPS             : 925725
        DURATION        : 00:24:19.666708333
        NUMBER_OF_FRAMES: 34997
        NUMBER_OF_BYTES : 168906253
        _STATISTICS_WRITING_APP: mkvpropedit v66.0.0 ('Josie') 64-bit
        _STATISTICS_WRITING_DATE_UTC: 2025-06-05 15:35:39
        _STATISTICS_TAGS: BPS DURATION NUMBER_OF_FRAMES NUMBER_OF_BYTES
  Stream #0:1: Audio: aac (LC), 48000 Hz, stereo, fltp (default)
      Metadata:
        HANDLER_NAME    : SoundHandler
        VENDOR_ID       : [0][0][0][0]
        ENCODER         : Lavc61.19.100 aac
        BPS             : 192676
        DURATION        : 00:24:20.864000000
        NUMBER_OF_FRAMES: 68479
        NUMBER_OF_BYTES : 35184246
        _STATISTICS_WRITING_APP: mkvpropedit v66.0.0 ('Josie') 64-bit
        _STATISTICS_WRITING_DATE_UTC: 2025-06-05 15:35:39
        _STATISTICS_TAGS: BPS DURATION NUMBER_OF_FRAMES NUMBER_OF_BYTES
Input #1, mov,mp4,m4a,3gp,3g2,mj2, from 'G:\Аниме\Онгоинги\!_36_Осень_2024\DreamCast\Эй, Томбо!\ТВ-1\[DC] Ooi! Tonbo - 12_Telegram.mp4':
  Metadata:
    major_brand     : isom
    minor_version   : 512
    compatible_brands: isomiso2avc1mp41
    encoder         : Lavf61.1.100
  Duration: 00:24:20.82, start: 0.000000, bitrate: 3833 kb/s
  Stream #1:0[0x1](und): Video: h264 (High) (avc1 / 0x31637661), yuv420p(tv, bt709, progressive), 1920x1080 [SAR 1:1 DAR 16:9], 3688 kb/s, 23.98 fps, 23.98 tbr, 24k tbn (default)
      Metadata:
        handler_name    : VideoHandler
        vendor_id       : [0][0][0][0]
        encoder         : Lavc61.3.100 h264_qsv
  Stream #1:1[0x2](und): Audio: aac (HE-AACv2) (mp4a / 0x6134706D), 48000 Hz, stereo, fltp, 144 kb/s (default)
      Metadata:
        handler_name    : SoundHandler
        vendor_id       : [0][0][0][0]
Stream mapping:
  Stream #0:0 (hevc) -> settb:default
  Stream #1:0 (h264) -> settb:default
  psnr:default -> Stream #0:0 (wrapped_avframe)
  Stream #0:1 -> #0:1 (aac (native) -> pcm_s16le (native))
Output #0, null, to 'pipe:':
  Metadata:
    COMPATIBLE_BRANDS: isomiso2avc1mp41
    MAJOR_BRAND     : isom
    MINOR_VERSION   : 512
    encoder         : Lavf61.7.100
  Stream #0:0: Video: wrapped_avframe, yuv420p10le(tv, bt709, progressive), 1920x1080 [SAR 1:1 DAR 16:9], q=2-31, 200 kb/s, 23.98 fps, 23.98 tbn
      Metadata:
        encoder         : Lavc61.19.100 wrapped_avframe
  Stream #0:1: Audio: pcm_s16le, 48000 Hz, stereo, s16, 1536 kb/s (default)
      Metadata:
        HANDLER_NAME    : SoundHandler
        VENDOR_ID       : [0][0][0][0]
        _STATISTICS_TAGS: BPS DURATION NUMBER_OF_FRAMES NUMBER_OF_BYTES
        BPS             : 192676
        DURATION        : 00:24:20.864000000
        NUMBER_OF_FRAMES: 68479
        NUMBER_OF_BYTES : 35184246
        _STATISTICS_WRITING_APP: mkvpropedit v66.0.0 ('Josie') 64-bit
        _STATISTICS_WRITING_DATE_UTC: 2025-06-05 15:35:39
        encoder         : Lavc61.19.100 pcm_s16le
frame=  166 fps=0.0 q=-0.0 size=N/A time=00:00:06.92 bitrate=N/A speed=13.3x    frame=  410 fps=398 q=-0.0 size=N/A time=00:00:17.10 bitrate=N/A speed=16.6x    frame=  663 fps=426 q=-0.0 size=N/A time=00:00:27.65 bitrate=N/A speed=17.8x    frame=  906 fps=439 q=-0.0 size=N/A time=00:00:37.78 bitrate=N/A speed=18.3x    frame= 1179 fps=455 q=-0.0 size=N/A time=00:00:49.17 bitrate=N/A speed=  19x    frame= 1445 fps=467 q=-0.0 size=N/A time=00:01:00.26 bitrate=N/A speed=19.5x    frame= 1723 fps=478 q=-0.0 size=N/A time=00:01:11.86 bitrate=N/A speed=19.9x    frame= 1947 fps=471 q=-0.0 size=N/A time=00:01:21.20 bitrate=N/A speed=19.6x    frame= 2173 fps=468 q=-0.0 size=N/A time=00:01:30.63 bitrate=N/A speed=19.5x    frame= 2379 fps=461 q=-0.0 size=N/A time=00:01:39.22 bitrate=N/A speed=19.2x    frame= 2598 fps=457 q=-0.0 size=N/A time=00:01:48.35 bitrate=N/A speed=19.1x    frame= 2822 fps=456 q=-0.0 size=N/A time=00:01:57.70 bitrate=N/A speed=  19x    frame= 3040 fps=453 q=-0.0 size=N/A time=00:02:06.79 bitrate=N/A speed=18.9x    frame= 3248 fps=449 q=-0.0 size=N/A time=00:02:15.46 bitrate=N/A speed=18.7x    frame= 3462 fps=447 q=-0.0 size=N/A time=00:02:24.39 bitrate=N/A speed=18.7x    frame= 3656 fps=443 q=-0.0 size=N/A time=00:02:32.48 bitrate=N/A speed=18.5x    frame= 3908 fps=445 q=-0.0 size=N/A time=00:02:42.99 bitrate=N/A speed=18.6x    frame= 4147 fps=447 q=-0.0 size=N/A time=00:02:52.96 bitrate=N/A speed=18.6x    frame= 4366 fps=446 q=-0.0 size=N/A time=00:03:02.09 bitrate=N/A speed=18.6x    frame= 4601 fps=446 q=-0.0 size=N/A time=00:03:11.90 bitrate=N/A speed=18.6x    frame= 4847 fps=448 q=-0.0 size=N/A time=00:03:22.16 bitrate=N/A speed=18.7x    frame= 5110 fps=450 q=-0.0 size=N/A time=00:03:33.12 bitrate=N/A speed=18.8x    frame= 5366 fps=452 q=-0.0 size=N/A time=00:03:43.80 bitrate=N/A speed=18.9x    frame= 5566 fps=450 q=-0.0 size=N/A time=00:03:52.14 bitrate=N/A speed=18.7x    frame= 5774 fps=448 q=-0.0 size=N/A time=00:04:00.82 bitrate=N/A speed=18.7x    frame= 6016 fps=448 q=-0.0 size=N/A time=00:04:10.91 bitrate=N/A speed=18.7x    frame= 6258 fps=449 q=-0.0 size=N/A time=00:04:21.01 bitrate=N/A speed=18.7x    frame= 6516 fps=451 q=-0.0 size=N/A time=00:04:31.77 bitrate=N/A speed=18.8x    frame= 6754 fps=452 q=-0.0 size=N/A time=00:04:41.69 bitrate=N/A speed=18.8x    frame= 6992 fps=452 q=-0.0 size=N/A time=00:04:51.62 bitrate=N/A speed=18.8x    frame= 7242 fps=453 q=-0.0 size=N/A time=00:05:02.05 bitrate=N/A speed=18.9x    frame= 7502 fps=454 q=-0.0 size=N/A time=00:05:12.89 bitrate=N/A speed=  19x    frame= 7723 fps=454 q=-0.0 size=N/A time=00:05:22.11 bitrate=N/A speed=18.9x    frame= 7987 fps=455 q=-0.0 size=N/A time=00:05:33.12 bitrate=N/A speed=  19x    frame= 8222 fps=455 q=-0.0 size=N/A time=00:05:42.92 bitrate=N/A speed=  19x    frame= 8458 fps=456 q=-0.0 size=N/A time=00:05:52.76 bitrate=N/A speed=  19x    frame= 8706 fps=456 q=-0.0 size=N/A time=00:06:03.11 bitrate=N/A speed=  19x    frame= 8947 fps=456 q=-0.0 size=N/A time=00:06:13.16 bitrate=N/A speed=  19x    frame= 9168 fps=456 q=-0.0 size=N/A time=00:06:22.38 bitrate=N/A speed=  19x    frame= 9385 fps=455 q=-0.0 size=N/A time=00:06:31.43 bitrate=N/A speed=  19x    frame= 9610 fps=454 q=-0.0 size=N/A time=00:06:40.81 bitrate=N/A speed=  19x    frame= 9876 fps=456 q=-0.0 size=N/A time=00:06:51.91 bitrate=N/A speed=  19x    frame=10157 fps=458 q=-0.0 size=N/A time=00:07:03.63 bitrate=N/A speed=19.1x    frame=10410 fps=459 q=-0.0 size=N/A time=00:07:14.18 bitrate=N/A speed=19.1x    frame=10648 fps=459 q=-0.0 size=N/A time=00:07:24.11 bitrate=N/A speed=19.1x    frame=10893 fps=459 q=-0.0 size=N/A time=00:07:34.32 bitrate=N/A speed=19.1x    frame=11089 fps=457 q=-0.0 size=N/A time=00:07:42.50 bitrate=N/A speed=19.1x    frame=11305 fps=457 q=-0.0 size=N/A time=00:07:51.51 bitrate=N/A speed=19.1x    frame=11580 fps=458 q=-0.0 size=N/A time=00:08:02.98 bitrate=N/A speed=19.1x    frame=11823 fps=458 q=-0.0 size=N/A time=00:08:13.11 bitrate=N/A speed=19.1x    frame=12063 fps=459 q=-0.0 size=N/A time=00:08:23.12 bitrate=N/A speed=19.1x    frame=12253 fps=457 q=-0.0 size=N/A time=00:08:31.05 bitrate=N/A speed=19.1x    frame=12508 fps=457 q=-0.0 size=N/A time=00:08:41.68 bitrate=N/A speed=19.1x    frame=12772 fps=459 q=-0.0 size=N/A time=00:08:52.69 bitrate=N/A speed=19.1x    frame=13041 fps=460 q=-0.0 size=N/A time=00:09:03.91 bitrate=N/A speed=19.2x    frame=13306 fps=461 q=-0.0 size=N/A time=00:09:14.97 bitrate=N/A speed=19.2x    frame=13531 fps=460 q=-0.0 size=N/A time=00:09:24.35 bitrate=N/A speed=19.2x    frame=13820 fps=462 q=-0.0 size=N/A time=00:09:36.40 bitrate=N/A speed=19.3x    frame=14070 fps=462 q=-0.0 size=N/A time=00:09:46.83 bitrate=N/A speed=19.3x    frame=14289 fps=462 q=-0.0 size=N/A time=00:09:55.97 bitrate=N/A speed=19.3x    frame=14475 fps=460 q=-0.0 size=N/A time=00:10:03.72 bitrate=N/A speed=19.2x    frame=14730 fps=461 q=-0.0 size=N/A time=00:10:14.36 bitrate=N/A speed=19.2x    frame=15001 fps=462 q=-0.0 size=N/A time=00:10:25.66 bitrate=N/A speed=19.3x    frame=15264 fps=462 q=-0.0 size=N/A time=00:10:36.63 bitrate=N/A speed=19.3x    frame=15532 fps=463 q=-0.0 size=N/A time=00:10:47.81 bitrate=N/A speed=19.3x    frame=15752 fps=463 q=-0.0 size=N/A time=00:10:56.98 bitrate=N/A speed=19.3x    frame=16018 fps=463 q=-0.0 size=N/A time=00:11:08.08 bitrate=N/A speed=19.3x    frame=16300 fps=465 q=-0.0 size=N/A time=00:11:19.84 bitrate=N/A speed=19.4x    frame=16574 fps=466 q=-0.0 size=N/A time=00:11:31.27 bitrate=N/A speed=19.4x    frame=16856 fps=467 q=-0.0 size=N/A time=00:11:43.03 bitrate=N/A speed=19.5x    frame=17090 fps=467 q=-0.0 size=N/A time=00:11:52.79 bitrate=N/A speed=19.5x    frame=17335 fps=467 q=-0.0 size=N/A time=00:12:03.01 bitrate=N/A speed=19.5x    frame=17547 fps=466 q=-0.0 size=N/A time=00:12:11.85 bitrate=N/A speed=19.4x    frame=17777 fps=466 q=-0.0 size=N/A time=00:12:21.44 bitrate=N/A speed=19.4x    frame=18035 fps=466 q=-0.0 size=N/A time=00:12:32.20 bitrate=N/A speed=19.4x    frame=18288 fps=467 q=-0.0 size=N/A time=00:12:42.76 bitrate=N/A speed=19.5x    frame=18544 fps=467 q=-0.0 size=N/A time=00:12:53.43 bitrate=N/A speed=19.5x    frame=18823 fps=468 q=-0.0 size=N/A time=00:13:05.07 bitrate=N/A speed=19.5x    frame=19082 fps=468 q=-0.0 size=N/A time=00:13:15.87 bitrate=N/A speed=19.5x    frame=19280 fps=467 q=-0.0 size=N/A time=00:13:24.13 bitrate=N/A speed=19.5x    frame=19514 fps=467 q=-0.0 size=N/A time=00:13:33.89 bitrate=N/A speed=19.5x    frame=19766 fps=467 q=-0.0 size=N/A time=00:13:44.40 bitrate=N/A speed=19.5x    frame=20047 fps=468 q=-0.0 size=N/A time=00:13:56.12 bitrate=N/A speed=19.5x    frame=20301 fps=468 q=-0.0 size=N/A time=00:14:06.72 bitrate=N/A speed=19.5x    frame=20551 fps=469 q=-0.0 size=N/A time=00:14:17.14 bitrate=N/A speed=19.5x    frame=20791 fps=469 q=-0.0 size=N/A time=00:14:27.15 bitrate=N/A speed=19.5x    frame=21026 fps=469 q=-0.0 size=N/A time=00:14:36.95 bitrate=N/A speed=19.5x    frame=21250 fps=468 q=-0.0 size=N/A time=00:14:46.30 bitrate=N/A speed=19.5x    frame=21468 fps=468 q=-0.0 size=N/A time=00:14:55.39 bitrate=N/A speed=19.5x    frame=21691 fps=467 q=-0.0 size=N/A time=00:15:04.69 bitrate=N/A speed=19.5x    frame=21924 fps=467 q=-0.0 size=N/A time=00:15:14.41 bitrate=N/A speed=19.5x    frame=22199 fps=468 q=-0.0 size=N/A time=00:15:25.88 bitrate=N/A speed=19.5x    frame=22452 fps=468 q=-0.0 size=N/A time=00:15:36.43 bitrate=N/A speed=19.5x    frame=22728 fps=469 q=-0.0 size=N/A time=00:15:47.94 bitrate=N/A speed=19.5x    frame=22988 fps=469 q=-0.0 size=N/A time=00:15:58.79 bitrate=N/A speed=19.6x    frame=23247 fps=469 q=-0.0 size=N/A time=00:16:09.59 bitrate=N/A speed=19.6x    frame=23509 fps=470 q=-0.0 size=N/A time=00:16:20.52 bitrate=N/A speed=19.6x    frame=23792 fps=471 q=-0.0 size=N/A time=00:16:32.32 bitrate=N/A speed=19.6x    frame=24072 fps=471 q=-0.0 size=N/A time=00:16:44.00 bitrate=N/A speed=19.7x    frame=24358 fps=472 q=-0.0 size=N/A time=00:16:55.97 bitrate=N/A speed=19.7x    frame=24599 fps=472 q=-0.0 size=N/A time=00:17:05.98 bitrate=N/A speed=19.7x    frame=24848 fps=472 q=-0.0 size=N/A time=00:17:16.36 bitrate=N/A speed=19.7x    frame=25124 fps=473 q=-0.0 size=N/A time=00:17:27.88 bitrate=N/A speed=19.7x    frame=25371 fps=473 q=-0.0 size=N/A time=00:17:38.18 bitrate=N/A speed=19.7x    frame=25630 fps=473 q=-0.0 size=N/A time=00:17:48.98 bitrate=N/A speed=19.7x    frame=25903 fps=474 q=-0.0 size=N/A time=00:18:00.37 bitrate=N/A speed=19.8x    frame=26165 fps=474 q=-0.0 size=N/A time=00:18:11.29 bitrate=N/A speed=19.8x    frame=26410 fps=474 q=-0.0 size=N/A time=00:18:21.51 bitrate=N/A speed=19.8x    frame=26678 fps=474 q=-0.0 size=N/A time=00:18:32.69 bitrate=N/A speed=19.8x    frame=26904 fps=474 q=-0.0 size=N/A time=00:18:42.12 bitrate=N/A speed=19.8x    frame=27181 fps=475 q=-0.0 size=N/A time=00:18:53.67 bitrate=N/A speed=19.8x    frame=27458 fps=475 q=-0.0 size=N/A time=00:19:05.22 bitrate=N/A speed=19.8x    frame=27714 fps=475 q=-0.0 size=N/A time=00:19:15.90 bitrate=N/A speed=19.8x    frame=27974 fps=476 q=-0.0 size=N/A time=00:19:26.74 bitrate=N/A speed=19.8x    frame=28208 fps=475 q=-0.0 size=N/A time=00:19:36.50 bitrate=N/A speed=19.8x    frame=28435 fps=475 q=-0.0 size=N/A time=00:19:45.97 bitrate=N/A speed=19.8x    frame=28688 fps=475 q=-0.0 size=N/A time=00:19:56.52 bitrate=N/A speed=19.8x    frame=28911 fps=475 q=-0.0 size=N/A time=00:20:05.82 bitrate=N/A speed=19.8x    frame=29162 fps=475 q=-0.0 size=N/A time=00:20:16.29 bitrate=N/A speed=19.8x    frame=29339 fps=474 q=-0.0 size=N/A time=00:20:23.68 bitrate=N/A speed=19.8x    frame=29567 fps=474 q=-0.0 size=N/A time=00:20:33.19 bitrate=N/A speed=19.8x    frame=29805 fps=473 q=-0.0 size=N/A time=00:20:43.11 bitrate=N/A speed=19.7x    frame=30046 fps=473 q=-0.0 size=N/A time=00:20:53.16 bitrate=N/A speed=19.7x    frame=30304 fps=474 q=-0.0 size=N/A time=00:21:03.92 bitrate=N/A speed=19.8x    frame=30570 fps=474 q=-0.0 size=N/A time=00:21:15.02 bitrate=N/A speed=19.8x    frame=30829 fps=474 q=-0.0 size=N/A time=00:21:25.82 bitrate=N/A speed=19.8x    frame=31114 fps=475 q=-0.0 size=N/A time=00:21:37.71 bitrate=N/A speed=19.8x    frame=31320 fps=474 q=-0.0 size=N/A time=00:21:46.30 bitrate=N/A speed=19.8x    frame=31570 fps=474 q=-0.0 size=N/A time=00:21:56.73 bitrate=N/A speed=19.8x    frame=31820 fps=474 q=-0.0 size=N/A time=00:22:07.15 bitrate=N/A speed=19.8x    frame=32071 fps=475 q=-0.0 size=N/A time=00:22:17.62 bitrate=N/A speed=19.8x    frame=32320 fps=475 q=-0.0 size=N/A time=00:22:28.01 bitrate=N/A speed=19.8x    frame=32538 fps=474 q=-0.0 size=N/A time=00:22:37.10 bitrate=N/A speed=19.8x    frame=32753 fps=474 q=-0.0 size=N/A time=00:22:46.07 bitrate=N/A speed=19.8x    frame=32981 fps=474 q=-0.0 size=N/A time=00:22:55.58 bitrate=N/A speed=19.8x    frame=33187 fps=473 q=-0.0 size=N/A time=00:23:04.17 bitrate=N/A speed=19.7x    frame=33394 fps=472 q=-0.0 size=N/A time=00:23:12.80 bitrate=N/A speed=19.7x    frame=33628 fps=472 q=-0.0 size=N/A time=00:23:22.56 bitrate=N/A speed=19.7x    frame=33827 fps=472 q=-0.0 size=N/A time=00:23:30.86 bitrate=N/A speed=19.7x    frame=34059 fps=472 q=-0.0 size=N/A time=00:23:40.54 bitrate=N/A speed=19.7x    frame=34273 fps=471 q=-0.0 size=N/A time=00:23:49.46 bitrate=N/A speed=19.6x    frame=34489 fps=471 q=-0.0 size=N/A time=00:23:58.47 bitrate=N/A speed=19.6x    frame=34712 fps=470 q=-0.0 size=N/A time=00:24:07.77 bitrate=N/A speed=19.6x    [Parsed_psnr_10 @ 00000201f6766b40] PSNR y:48.327282 u:50.495393 v:50.917509 average:48.984167 min:40.007384 max:inf
[out#0/null @ 00000201f4504200] video:15038KiB audio:273916KiB subtitle:0KiB other streams:0KiB global headers:0KiB muxing overhead: unknown
frame=34997 fps=471 q=-0.0 Lsize=N/A time=00:24:19.66 bitrate=N/A speed=19.6x    
